# This file uses meters as units for non-parametric coordinates.

mtllib Colums.mtl
g default
v -2445.755371 -728.396057 105.073997
v -2735.320312 -728.396057 -62.106544
v -3064.601562 -728.396057 -4.045418
v -3279.524658 -728.396057 252.089935
v -3279.524658 -728.396057 586.450928
v -3064.601562 -728.396057 842.586304
v -2735.320312 -728.396057 900.647522
v -2445.755371 -728.396057 733.466980
v -2331.396973 -728.396057 419.270508
v -2445.755371 2733.601318 105.073997
v -2735.320312 2733.601318 -62.106544
v -3064.601562 2733.601318 -4.045418
v -3279.524658 2733.601318 252.089935
v -3279.524658 2733.601318 586.450928
v -3064.601562 2733.601318 842.586304
v -2735.320312 2733.601318 900.647522
v -2445.755371 2733.601318 733.466980
v -2331.396973 2733.601318 419.270508
v -2820.200195 -728.396057 419.270508
v -2820.200195 2733.601318 419.270508
v 2445.755371 -728.396057 105.073997
v 2735.320312 -728.396057 -62.106544
v 3064.601562 -728.396057 -4.045418
v 3279.524658 -728.396057 252.089935
v 3279.524658 -728.396057 586.450928
v 3064.601562 -728.396057 842.586304
v 2735.320312 -728.396057 900.647522
v 2445.755371 -728.396057 733.466980
v 2331.396973 -728.396057 419.270508
v 2445.755371 2733.601318 105.073997
v 2735.320312 2733.601318 -62.106544
v 3064.601562 2733.601318 -4.045418
v 3279.524658 2733.601318 252.089935
v 3279.524658 2733.601318 586.450928
v 3064.601562 2733.601318 842.586304
v 2735.320312 2733.601318 900.647522
v 2445.755371 2733.601318 733.466980
v 2331.396973 2733.601318 419.270508
v 2820.200195 -728.396057 419.270508
v 2820.200195 2733.601318 419.270508
v -2445.755371 -728.396057 -5325.074219
v -2735.320312 -728.396057 -5157.893555
v -3064.601562 -728.396057 -5215.954590
v -3279.524658 -728.396057 -5472.089844
v -3279.524658 -728.396057 -5806.451172
v -3064.601562 -728.396057 -6062.586426
v -2735.320312 -728.396057 -6120.647461
v -2445.755371 -728.396057 -5953.466797
v -2331.396973 -728.396057 -5639.270508
v -2445.755371 2733.601318 -5325.074219
v -2735.320312 2733.601318 -5157.893555
v -3064.601562 2733.601318 -5215.954590
v -3279.524658 2733.601318 -5472.089844
v -3279.524658 2733.601318 -5806.451172
v -3064.601562 2733.601318 -6062.586426
v -2735.320312 2733.601318 -6120.647461
v -2445.755371 2733.601318 -5953.466797
v -2331.396973 2733.601318 -5639.270508
v -2820.200195 -728.396057 -5639.270508
v -2820.200195 2733.601318 -5639.270508
v 2445.755371 -728.396057 -5325.074219
v 2735.320312 -728.396057 -5157.893555
v 3064.601562 -728.396057 -5215.954590
v 3279.524658 -728.396057 -5472.089844
v 3279.524658 -728.396057 -5806.451172
v 3064.601562 -728.396057 -6062.586426
v 2735.320312 -728.396057 -6120.647461
v 2445.755371 -728.396057 -5953.466797
v 2331.396973 -728.396057 -5639.270508
v 2445.755371 2733.601318 -5325.074219
v 2735.320312 2733.601318 -5157.893555
v 3064.601562 2733.601318 -5215.954590
v 3279.524658 2733.601318 -5472.089844
v 3279.524658 2733.601318 -5806.451172
v 3064.601562 2733.601318 -6062.586426
v 2735.320312 2733.601318 -6120.647461
v 2445.755371 2733.601318 -5953.466797
v 2331.396973 2733.601318 -5639.270508
v 2820.200195 -728.396057 -5639.270508
v 2820.200195 2733.601318 -5639.270508
vt 0.619694 0.055814
vt 0.527133 0.002374
vt 0.421875 0.020934
vt 0.353173 0.102809
vt 0.353173 0.209691
vt 0.421875 0.291566
vt 0.527133 0.310126
vt 0.619694 0.256686
vt 0.656250 0.156250
vt 0.375000 0.312500
vt 0.402778 0.312500
vt 0.430556 0.312500
vt 0.458333 0.312500
vt 0.486111 0.312500
vt 0.513889 0.312500
vt 0.541667 0.312500
vt 0.569445 0.312500
vt 0.597222 0.312500
vt 0.625000 0.312500
vt 0.375000 0.687500
vt 0.402778 0.687500
vt 0.430556 0.687500
vt 0.458333 0.687500
vt 0.486111 0.687500
vt 0.513889 0.687500
vt 0.541667 0.687500
vt 0.569445 0.687500
vt 0.597222 0.687500
vt 0.625000 0.687500
vt 0.619694 0.743314
vt 0.527133 0.689874
vt 0.421875 0.708434
vt 0.353173 0.790309
vt 0.353173 0.897191
vt 0.421875 0.979066
vt 0.527133 0.997626
vt 0.619694 0.944186
vt 0.656250 0.843750
vt 0.500000 0.156250
vt 0.500000 0.843750
vt 0.375000 0.312500
vt 0.402778 0.312500
vt 0.402778 0.687500
vt 0.375000 0.687500
vt 0.430556 0.312500
vt 0.430556 0.687500
vt 0.458333 0.312500
vt 0.458333 0.687500
vt 0.486111 0.312500
vt 0.486111 0.687500
vt 0.513889 0.312500
vt 0.513889 0.687500
vt 0.541667 0.312500
vt 0.541667 0.687500
vt 0.569445 0.312500
vt 0.569445 0.687500
vt 0.597222 0.312500
vt 0.597222 0.687500
vt 0.625000 0.312500
vt 0.625000 0.687500
vt 0.527133 0.002374
vt 0.619694 0.055814
vt 0.500000 0.156250
vt 0.421875 0.020934
vt 0.353173 0.102809
vt 0.353173 0.209691
vt 0.421875 0.291566
vt 0.527133 0.310126
vt 0.619694 0.256686
vt 0.656250 0.156250
vt 0.619694 0.944186
vt 0.527133 0.997626
vt 0.500000 0.843750
vt 0.421875 0.979066
vt 0.353173 0.897191
vt 0.353173 0.790309
vt 0.421875 0.708434
vt 0.527133 0.689874
vt 0.619694 0.743314
vt 0.656250 0.843750
vt 0.375000 0.312500
vt 0.402778 0.312500
vt 0.402778 0.687500
vt 0.375000 0.687500
vt 0.430556 0.312500
vt 0.430556 0.687500
vt 0.458333 0.312500
vt 0.458333 0.687500
vt 0.486111 0.312500
vt 0.486111 0.687500
vt 0.513889 0.312500
vt 0.513889 0.687500
vt 0.541667 0.312500
vt 0.541667 0.687500
vt 0.569445 0.312500
vt 0.569445 0.687500
vt 0.597222 0.312500
vt 0.597222 0.687500
vt 0.625000 0.312500
vt 0.625000 0.687500
vt 0.527133 0.002374
vt 0.619694 0.055814
vt 0.500000 0.156250
vt 0.421875 0.020934
vt 0.353173 0.102809
vt 0.353173 0.209691
vt 0.421875 0.291566
vt 0.527133 0.310126
vt 0.619694 0.256686
vt 0.656250 0.156250
vt 0.619694 0.944186
vt 0.527133 0.997626
vt 0.500000 0.843750
vt 0.421875 0.979066
vt 0.353173 0.897191
vt 0.353173 0.790309
vt 0.421875 0.708434
vt 0.527133 0.689874
vt 0.619694 0.743314
vt 0.656250 0.843750
vt 0.375000 0.312500
vt 0.375000 0.687500
vt 0.402778 0.687500
vt 0.402778 0.312500
vt 0.430556 0.687500
vt 0.430556 0.312500
vt 0.458333 0.687500
vt 0.458333 0.312500
vt 0.486111 0.687500
vt 0.486111 0.312500
vt 0.513889 0.687500
vt 0.513889 0.312500
vt 0.541667 0.687500
vt 0.541667 0.312500
vt 0.569445 0.687500
vt 0.569445 0.312500
vt 0.597222 0.687500
vt 0.597222 0.312500
vt 0.625000 0.687500
vt 0.625000 0.312500
vt 0.527133 0.002374
vt 0.500000 0.156250
vt 0.619694 0.055814
vt 0.421875 0.020934
vt 0.353173 0.102809
vt 0.353173 0.209691
vt 0.421875 0.291566
vt 0.527133 0.310126
vt 0.619694 0.256686
vt 0.656250 0.156250
vt 0.619694 0.944186
vt 0.500000 0.843750
vt 0.527133 0.997626
vt 0.421875 0.979066
vt 0.353173 0.897191
vt 0.353173 0.790309
vt 0.421875 0.708434
vt 0.527133 0.689874
vt 0.619694 0.743314
vt 0.656250 0.843750
vn 0.500000 0.000000 -0.866025
vn 0.500000 0.000000 -0.866025
vn 0.500000 0.000000 -0.866025
vn 0.500000 0.000000 -0.866025
vn -0.173648 0.000000 -0.984808
vn -0.173648 0.000000 -0.984808
vn -0.173648 0.000000 -0.984808
vn -0.173648 0.000000 -0.984808
vn -0.766044 0.000000 -0.642788
vn -0.766044 0.000000 -0.642788
vn -0.766044 0.000000 -0.642788
vn -0.766044 0.000000 -0.642788
vn -1.000000 0.000000 0.000000
vn -1.000000 0.000000 0.000000
vn -1.000000 0.000000 0.000000
vn -1.000000 0.000000 0.000000
vn -0.766045 0.000000 0.642788
vn -0.766045 0.000000 0.642788
vn -0.766045 0.000000 0.642788
vn -0.766045 0.000000 0.642788
vn -0.173648 0.000000 0.984808
vn -0.173648 0.000000 0.984808
vn -0.173648 0.000000 0.984808
vn -0.173648 0.000000 0.984808
vn 0.500000 0.000000 0.866025
vn 0.500000 0.000000 0.866025
vn 0.500000 0.000000 0.866025
vn 0.500000 0.000000 0.866025
vn 0.939692 0.000000 0.342021
vn 0.939692 0.000000 0.342021
vn 0.939692 0.000000 0.342021
vn 0.939692 0.000000 0.342021
vn 0.939692 0.000000 -0.342021
vn 0.939692 0.000000 -0.342021
vn 0.939692 0.000000 -0.342021
vn 0.939692 0.000000 -0.342021
vn 0.000000 -1.000000 0.000000
vn 0.000000 -1.000000 0.000000
vn 0.000000 -1.000000 0.000000
vn 0.000000 -1.000000 0.000000
vn 0.000000 -1.000000 0.000000
vn 0.000000 -1.000000 -0.000000
vn 0.000000 -1.000000 -0.000000
vn 0.000000 -1.000000 0.000000
vn 0.000000 -1.000000 0.000000
vn 0.000000 -1.000000 0.000000
vn 0.000000 1.000000 0.000000
vn 0.000000 1.000000 0.000000
vn 0.000000 1.000000 -0.000000
vn 0.000000 1.000000 -0.000000
vn 0.000000 1.000000 -0.000000
vn 0.000000 1.000000 0.000000
vn 0.000000 1.000000 -0.000000
vn 0.000000 1.000000 -0.000001
vn 0.000000 1.000000 -0.000000
vn 0.000000 1.000000 0.000000
vn -0.500000 0.000000 -0.866025
vn -0.500000 0.000000 -0.866025
vn -0.500000 0.000000 -0.866025
vn -0.500000 0.000000 -0.866025
vn 0.173648 0.000000 -0.984808
vn 0.173648 0.000000 -0.984808
vn 0.173648 0.000000 -0.984808
vn 0.173648 0.000000 -0.984808
vn 0.766044 0.000000 -0.642788
vn 0.766044 0.000000 -0.642788
vn 0.766044 0.000000 -0.642788
vn 0.766044 0.000000 -0.642788
vn 1.000000 0.000000 0.000000
vn 1.000000 0.000000 0.000000
vn 1.000000 0.000000 0.000000
vn 1.000000 0.000000 0.000000
vn 0.766045 0.000000 0.642788
vn 0.766045 0.000000 0.642788
vn 0.766045 0.000000 0.642788
vn 0.766045 0.000000 0.642788
vn 0.173648 0.000000 0.984808
vn 0.173648 0.000000 0.984808
vn 0.173648 0.000000 0.984808
vn 0.173648 0.000000 0.984808
vn -0.500000 0.000000 0.866025
vn -0.500000 0.000000 0.866025
vn -0.500000 0.000000 0.866025
vn -0.500000 0.000000 0.866025
vn -0.939692 0.000000 0.342021
vn -0.939692 0.000000 0.342021
vn -0.939692 0.000000 0.342021
vn -0.939692 0.000000 0.342021
vn -0.939692 0.000000 -0.342021
vn -0.939692 0.000000 -0.342021
vn -0.939692 0.000000 -0.342021
vn -0.939692 0.000000 -0.342021
vn 0.000000 -1.000000 0.000000
vn 0.000000 -1.000000 -0.000000
vn 0.000000 -1.000000 0.000000
vn 0.000000 -1.000000 0.000000
vn 0.000000 -1.000000 0.000000
vn 0.000000 -1.000000 -0.000000
vn 0.000000 -1.000000 -0.000000
vn 0.000000 -1.000000 -0.000000
vn 0.000000 -1.000000 0.000000
vn 0.000000 -1.000000 0.000000
vn 0.000000 1.000000 0.000000
vn 0.000000 1.000000 0.000000
vn 0.000000 1.000000 0.000000
vn 0.000000 1.000000 0.000000
vn 0.000000 1.000000 -0.000000
vn 0.000000 1.000000 0.000000
vn 0.000000 1.000000 -0.000000
vn 0.000000 1.000000 -0.000000
vn 0.000000 1.000000 -0.000000
vn 0.000000 1.000000 0.000000
vn 0.500000 0.000000 0.866025
vn 0.500000 0.000000 0.866025
vn 0.500000 0.000000 0.866025
vn 0.500000 0.000000 0.866025
vn -0.173647 0.000000 0.984808
vn -0.173647 0.000000 0.984808
vn -0.173647 0.000000 0.984808
vn -0.173647 0.000000 0.984808
vn -0.766045 0.000000 0.642788
vn -0.766045 0.000000 0.642788
vn -0.766045 0.000000 0.642788
vn -0.766045 0.000000 0.642788
vn -1.000000 0.000000 0.000000
vn -1.000000 0.000000 0.000000
vn -1.000000 0.000000 0.000000
vn -1.000000 0.000000 0.000000
vn -0.766045 0.000000 -0.642788
vn -0.766045 0.000000 -0.642788
vn -0.766045 0.000000 -0.642788
vn -0.766045 0.000000 -0.642788
vn -0.173648 0.000000 -0.984808
vn -0.173648 0.000000 -0.984808
vn -0.173648 0.000000 -0.984808
vn -0.173648 0.000000 -0.984808
vn 0.500001 0.000000 -0.866025
vn 0.500001 0.000000 -0.866025
vn 0.500001 0.000000 -0.866025
vn 0.500001 0.000000 -0.866025
vn 0.939692 0.000000 -0.342021
vn 0.939692 0.000000 -0.342021
vn 0.939692 0.000000 -0.342021
vn 0.939692 0.000000 -0.342021
vn 0.939692 0.000000 0.342021
vn 0.939692 0.000000 0.342021
vn 0.939692 0.000000 0.342021
vn 0.939692 0.000000 0.342021
vn 0.000000 -1.000000 -0.000000
vn 0.000000 -1.000000 -0.000000
vn 0.000000 -1.000000 0.000000
vn 0.000000 -1.000000 -0.000000
vn 0.000000 -1.000000 -0.000000
vn 0.000000 -1.000000 0.000000
vn 0.000000 -1.000000 0.000000
vn 0.000000 -1.000000 0.000000
vn 0.000000 -1.000000 -0.000000
vn 0.000000 -1.000000 0.000000
vn 0.000000 1.000000 -0.000000
vn 0.000000 1.000000 -0.000000
vn 0.000000 1.000000 -0.000000
vn 0.000000 1.000000 -0.000000
vn 0.000000 1.000000 0.000000
vn 0.000000 1.000000 -0.000000
vn 0.000000 1.000000 -0.000000
vn 0.000000 1.000000 0.000000
vn 0.000000 1.000000 0.000000
vn 0.000000 1.000000 0.000000
vn -0.500000 0.000000 0.866025
vn -0.500000 0.000000 0.866025
vn -0.500000 0.000000 0.866025
vn -0.500000 0.000000 0.866025
vn 0.173647 0.000000 0.984808
vn 0.173647 0.000000 0.984808
vn 0.173647 0.000000 0.984808
vn 0.173647 0.000000 0.984808
vn 0.766045 0.000000 0.642788
vn 0.766045 0.000000 0.642788
vn 0.766045 0.000000 0.642788
vn 0.766045 0.000000 0.642788
vn 1.000000 0.000000 0.000000
vn 1.000000 0.000000 0.000000
vn 1.000000 0.000000 0.000000
vn 1.000000 0.000000 0.000000
vn 0.766045 0.000000 -0.642788
vn 0.766045 0.000000 -0.642788
vn 0.766045 0.000000 -0.642788
vn 0.766045 0.000000 -0.642788
vn 0.173648 0.000000 -0.984808
vn 0.173648 0.000000 -0.984808
vn 0.173648 0.000000 -0.984808
vn 0.173648 0.000000 -0.984808
vn -0.500001 0.000000 -0.866025
vn -0.500001 0.000000 -0.866025
vn -0.500001 0.000000 -0.866025
vn -0.500001 0.000000 -0.866025
vn -0.939692 0.000000 -0.342021
vn -0.939692 0.000000 -0.342021
vn -0.939692 0.000000 -0.342021
vn -0.939692 0.000000 -0.342021
vn -0.939692 0.000000 0.342021
vn -0.939692 0.000000 0.342021
vn -0.939692 0.000000 0.342021
vn -0.939692 0.000000 0.342021
vn 0.000000 -1.000000 -0.000000
vn 0.000000 -1.000000 -0.000000
vn 0.000000 -1.000000 -0.000000
vn 0.000000 -1.000000 0.000000
vn 0.000000 -1.000000 0.000000
vn 0.000000 -1.000000 0.000000
vn 0.000000 -1.000000 0.000000
vn 0.000000 -1.000000 0.000000
vn 0.000000 -1.000000 -0.000000
vn 0.000000 -1.000000 -0.000000
vn 0.000000 1.000000 0.000000
vn 0.000000 1.000000 -0.000000
vn 0.000000 1.000000 0.000000
vn 0.000000 1.000000 0.000000
vn 0.000000 1.000000 0.000000
vn 0.000000 1.000000 0.000000
vn 0.000000 1.000000 0.000000
vn 0.000000 1.000000 0.000001
vn 0.000000 1.000000 0.000000
vn 0.000000 1.000000 0.000000
s off
g colum group1
usemtl initialShadingGroup
f 1/10/1 2/11/2 11/21/3 10/20/4
f 2/11/5 3/12/6 12/22/7 11/21/8
f 3/12/9 4/13/10 13/23/11 12/22/12
f 4/13/13 5/14/14 14/24/15 13/23/16
f 5/14/17 6/15/18 15/25/19 14/24/20
f 6/15/21 7/16/22 16/26/23 15/25/24
f 7/16/25 8/17/26 17/27/27 16/26/28
f 8/17/29 9/18/30 18/28/31 17/27/32
f 9/18/33 1/19/34 10/29/35 18/28/36
s 1
f 2/2/37 1/1/38 19/39/39
f 3/3/40 2/2/37 19/39/39
f 4/4/41 3/3/40 19/39/39
f 5/5/42 4/4/41 19/39/39
f 6/6/43 5/5/42 19/39/39
f 7/7/44 6/6/43 19/39/39
f 8/8/45 7/7/44 19/39/39
f 9/9/46 8/8/45 19/39/39
f 1/1/38 9/9/46 19/39/39
s 2
f 10/37/47 11/36/48 20/40/49
f 11/36/48 12/35/50 20/40/49
f 12/35/50 13/34/51 20/40/49
f 13/34/51 14/33/52 20/40/49
f 14/33/52 15/32/53 20/40/49
f 15/32/53 16/31/54 20/40/49
f 16/31/54 17/30/55 20/40/49
f 17/30/55 18/38/56 20/40/49
f 18/38/56 10/37/47 20/40/49
s off
f 21/41/57 30/44/58 31/43/59 22/42/60
f 22/42/61 31/43/62 32/46/63 23/45/64
f 23/45/65 32/46/66 33/48/67 24/47/68
f 24/47/69 33/48/70 34/50/71 25/49/72
f 25/49/73 34/50/74 35/52/75 26/51/76
f 26/51/77 35/52/78 36/54/79 27/53/80
f 27/53/81 36/54/82 37/56/83 28/55/84
f 28/55/85 37/56/86 38/58/87 29/57/88
f 29/57/89 38/58/90 30/60/91 21/59/92
s 3
f 22/61/93 39/63/94 21/62/95
f 23/64/96 39/63/94 22/61/93
f 24/65/97 39/63/94 23/64/96
f 25/66/98 39/63/94 24/65/97
f 26/67/99 39/63/94 25/66/98
f 27/68/100 39/63/94 26/67/99
f 28/69/101 39/63/94 27/68/100
f 29/70/102 39/63/94 28/69/101
f 21/62/95 39/63/94 29/70/102
s 4
f 30/71/103 40/73/104 31/72/105
f 31/72/105 40/73/104 32/74/106
f 32/74/106 40/73/104 33/75/107
f 33/75/107 40/73/104 34/76/108
f 34/76/108 40/73/104 35/77/109
f 35/77/109 40/73/104 36/78/110
f 36/78/110 40/73/104 37/79/111
f 37/79/111 40/73/104 38/80/112
f 38/80/112 40/73/104 30/71/103
s off
f 41/81/113 50/84/114 51/83/115 42/82/116
f 42/82/117 51/83/118 52/86/119 43/85/120
f 43/85/121 52/86/122 53/88/123 44/87/124
f 44/87/125 53/88/126 54/90/127 45/89/128
f 45/89/129 54/90/130 55/92/131 46/91/132
f 46/91/133 55/92/134 56/94/135 47/93/136
f 47/93/137 56/94/138 57/96/139 48/95/140
f 48/95/141 57/96/142 58/98/143 49/97/144
f 49/97/145 58/98/146 50/100/147 41/99/148
s 5
f 42/101/149 59/103/150 41/102/151
f 43/104/152 59/103/150 42/101/149
f 44/105/153 59/103/150 43/104/152
f 45/106/154 59/103/150 44/105/153
f 46/107/155 59/103/150 45/106/154
f 47/108/156 59/103/150 46/107/155
f 48/109/157 59/103/150 47/108/156
f 49/110/158 59/103/150 48/109/157
f 41/102/151 59/103/150 49/110/158
s 6
f 50/111/159 60/113/160 51/112/161
f 51/112/161 60/113/160 52/114/162
f 52/114/162 60/113/160 53/115/163
f 53/115/163 60/113/160 54/116/164
f 54/116/164 60/113/160 55/117/165
f 55/117/165 60/113/160 56/118/166
f 56/118/166 60/113/160 57/119/167
f 57/119/167 60/113/160 58/120/168
f 58/120/168 60/113/160 50/111/159
s off
f 61/121/169 62/124/170 71/123/171 70/122/172
f 62/124/173 63/126/174 72/125/175 71/123/176
f 63/126/177 64/128/178 73/127/179 72/125/180
f 64/128/181 65/130/182 74/129/183 73/127/184
f 65/130/185 66/132/186 75/131/187 74/129/188
f 66/132/189 67/134/190 76/133/191 75/131/192
f 67/134/193 68/136/194 77/135/195 76/133/196
f 68/136/197 69/138/198 78/137/199 77/135/200
f 69/138/201 61/140/202 70/139/203 78/137/204
s 7
f 62/141/205 61/143/206 79/142/207
f 63/144/208 62/141/205 79/142/207
f 64/145/209 63/144/208 79/142/207
f 65/146/210 64/145/209 79/142/207
f 66/147/211 65/146/210 79/142/207
f 67/148/212 66/147/211 79/142/207
f 68/149/213 67/148/212 79/142/207
f 69/150/214 68/149/213 79/142/207
f 61/143/206 69/150/214 79/142/207
s 8
f 70/151/215 71/153/216 80/152/217
f 71/153/216 72/154/218 80/152/217
f 72/154/218 73/155/219 80/152/217
f 73/155/219 74/156/220 80/152/217
f 74/156/220 75/157/221 80/152/217
f 75/157/221 76/158/222 80/152/217
f 76/158/222 77/159/223 80/152/217
f 77/159/223 78/160/224 80/152/217
f 78/160/224 70/151/215 80/152/217
